<svg xmlns="http://www.w3.org/2000/svg" width="1840" height="896" viewBox="0 0 1840 896">
  <defs>
    <style>
      @import url('https://fonts.googleapis.com/css2?family=Inter:wght@400;700;900&amp;display=swap');
      text { font-family: 'Inter', 'Helvetica Neue', Arial, sans-serif; }
    </style>
  </defs>
  <rect width="1840" height="896" fill="white"/>
  <text x="920" y="42" text-anchor="middle" font-size="38" font-weight="900" fill="#1a1a1a">August 2026</text>
  <text x="920" y="62" text-anchor="middle" font-size="13" font-weight="700" fill="#666">IPS + SDK + Princess</text>
  <rect x="770" y="64" width="12" height="12" rx="3" fill="#FFF7ED" stroke="#F59E0B" stroke-width="2"/>
  <text x="787" y="74" font-size="11" font-weight="600" fill="#888">IPS</text>
  <rect x="870" y="64" width="12" height="12" rx="3" fill="#EFF6FF" stroke="#3B82F6" stroke-width="2"/>
  <text x="887" y="74" font-size="11" font-weight="600" fill="#888">SDK</text>
  <rect x="970" y="64" width="12" height="12" rx="3" fill="#FDF2F8" stroke="#EC4899" stroke-width="2"/>
  <text x="987" y="74" font-size="11" font-weight="600" fill="#888">Princess</text>
  <rect x="10" y="80" width="260" height="40" fill="#f0f0f0" stroke="#ddd" stroke-width="1"/>  <text x="140" y="107" text-anchor="middle" font-size="15" font-weight="700" fill="#555">Mon</text>
  <rect x="270" y="80" width="260" height="40" fill="#f0f0f0" stroke="#ddd" stroke-width="1"/>  <text x="400" y="107" text-anchor="middle" font-size="15" font-weight="700" fill="#555">Tue</text>
  <rect x="530" y="80" width="260" height="40" fill="#f0f0f0" stroke="#ddd" stroke-width="1"/>  <text x="660" y="107" text-anchor="middle" font-size="15" font-weight="700" fill="#555">Wed</text>
  <rect x="790" y="80" width="260" height="40" fill="#f0f0f0" stroke="#ddd" stroke-width="1"/>  <text x="920" y="107" text-anchor="middle" font-size="15" font-weight="700" fill="#555">Thu</text>
  <rect x="1050" y="80" width="260" height="40" fill="#f0f0f0" stroke="#ddd" stroke-width="1"/>  <text x="1180" y="107" text-anchor="middle" font-size="15" font-weight="700" fill="#555">Fri</text>
  <rect x="1310" y="80" width="260" height="40" fill="#f0f0f0" stroke="#ddd" stroke-width="1"/>  <text x="1440" y="107" text-anchor="middle" font-size="15" font-weight="700" fill="#555">Sat</text>
  <rect x="1570" y="80" width="260" height="40" fill="#f0f0f0" stroke="#ddd" stroke-width="1"/>  <text x="1700" y="107" text-anchor="middle" font-size="15" font-weight="700" fill="#555">Sun</text>
  <rect x="10" y="120" width="260" height="100" fill="#fafafa" stroke="#ddd" stroke-width="1"/>
  <rect x="270" y="120" width="260" height="100" fill="#fafafa" stroke="#ddd" stroke-width="1"/>
  <rect x="530" y="120" width="260" height="100" fill="#fafafa" stroke="#ddd" stroke-width="1"/>
  <rect x="790" y="120" width="260" height="100" fill="#fafafa" stroke="#ddd" stroke-width="1"/>
  <rect x="1050" y="120" width="260" height="100" fill="#fafafa" stroke="#ddd" stroke-width="1"/>
  <rect x="1310" y="120" width="260" height="100" fill="white" stroke="#ddd" stroke-width="1"/>
  <text x="1320" y="144" font-size="18" font-weight="400" fill="#aaa">1</text>
  <rect x="1570" y="120" width="260" height="100" fill="white" stroke="#ddd" stroke-width="1"/>
  <text x="1580" y="144" font-size="18" font-weight="900" fill="#1a1a1a">2</text>
  <rect x="1576" y="158" width="248" height="48" rx="6" fill="#EFF6FF" stroke="#3B82F6" stroke-width="2"/>
  <text x="1584" y="177" font-size="14" font-weight="900" fill="#1a1a1a">Queen Anne</text>
  <text x="1584" y="196" font-size="16" font-weight="900" fill="#1D4ED8" letter-spacing="1.5">GARBAGE</text>
  <text x="1814" y="177" text-anchor="end" font-size="11" fill="#888">2650 pax</text>
  <rect x="10" y="220" width="260" height="152" fill="white" stroke="#ddd" stroke-width="1"/>
  <text x="20" y="244" font-size="18" font-weight="900" fill="#1a1a1a">3</text>
  <rect x="16" y="258" width="248" height="48" rx="6" fill="#FFF7ED" stroke="#F59E0B" stroke-width="2"/>
  <text x="24" y="277" font-size="14" font-weight="900" fill="#1a1a1a">Viking Mars</text>
  <text x="24" y="296" font-size="16" font-weight="900" fill="#D97706" letter-spacing="1.5">TURNAROUND</text>
  <text x="254" y="277" text-anchor="end" font-size="11" fill="#888">930 pax</text>
  <rect x="270" y="220" width="260" height="152" fill="white" stroke="#ddd" stroke-width="1"/>
  <text x="280" y="244" font-size="18" font-weight="400" fill="#aaa">4</text>
  <rect x="530" y="220" width="260" height="152" fill="white" stroke="#ddd" stroke-width="1"/>
  <text x="540" y="244" font-size="18" font-weight="400" fill="#aaa">5</text>
  <rect x="790" y="220" width="260" height="152" fill="white" stroke="#ddd" stroke-width="1"/>
  <text x="800" y="244" font-size="18" font-weight="900" fill="#1a1a1a">6</text>
  <rect x="796" y="258" width="248" height="48" rx="6" fill="#FFF7ED" stroke="#F59E0B" stroke-width="2"/>
  <text x="804" y="277" font-size="14" font-weight="900" fill="#1a1a1a">Viking Saturn</text>
  <text x="804" y="296" font-size="16" font-weight="900" fill="#D97706" letter-spacing="1.5">TURNAROUND</text>
  <text x="1034" y="277" text-anchor="end" font-size="11" fill="#888">930 pax</text>
  <rect x="1050" y="220" width="260" height="152" fill="white" stroke="#ddd" stroke-width="1"/>
  <text x="1060" y="244" font-size="18" font-weight="900" fill="#1a1a1a">7</text>
  <rect x="1056" y="258" width="248" height="48" rx="6" fill="#EFF6FF" stroke="#3B82F6" stroke-width="2"/>
  <text x="1064" y="277" font-size="14" font-weight="900" fill="#1a1a1a">Costa Favolosa</text>
  <text x="1064" y="296" font-size="16" font-weight="900" fill="#1D4ED8" letter-spacing="1.5">GARBAGE</text>
  <text x="1294" y="277" text-anchor="end" font-size="11" fill="#888">3016 pax</text>
  <rect x="1056" y="310" width="248" height="48" rx="6" fill="#EFF6FF" stroke="#3B82F6" stroke-width="2"/>
  <text x="1064" y="329" font-size="14" font-weight="900" fill="#1a1a1a">Mein Schiff 7</text>
  <text x="1064" y="348" font-size="16" font-weight="900" fill="#1D4ED8" letter-spacing="1.5">GARBAGE</text>
  <text x="1294" y="329" text-anchor="end" font-size="11" fill="#888">2894 pax</text>
  <rect x="1310" y="220" width="260" height="152" fill="white" stroke="#ddd" stroke-width="1"/>
  <text x="1320" y="244" font-size="18" font-weight="400" fill="#aaa">8</text>
  <rect x="1570" y="220" width="260" height="152" fill="white" stroke="#ddd" stroke-width="1"/>
  <text x="1580" y="244" font-size="18" font-weight="900" fill="#1a1a1a">9</text>
  <rect x="1576" y="258" width="248" height="48" rx="6" fill="#EFF6FF" stroke="#3B82F6" stroke-width="2"/>
  <text x="1584" y="277" font-size="14" font-weight="900" fill="#1a1a1a">Arcadia</text>
  <text x="1584" y="296" font-size="16" font-weight="900" fill="#1D4ED8" letter-spacing="1.5">GARBAGE</text>
  <text x="1814" y="277" text-anchor="end" font-size="11" fill="#888">1994 pax</text>
  <rect x="10" y="372" width="260" height="152" fill="white" stroke="#ddd" stroke-width="1"/>
  <text x="20" y="396" font-size="18" font-weight="900" fill="#1a1a1a">10</text>
  <rect x="16" y="410" width="248" height="48" rx="6" fill="#FFF7ED" stroke="#F59E0B" stroke-width="2"/>
  <text x="24" y="429" font-size="14" font-weight="900" fill="#1a1a1a">Viking Mars</text>
  <text x="24" y="448" font-size="16" font-weight="900" fill="#D97706" letter-spacing="1.5">TURNAROUND</text>
  <text x="254" y="429" text-anchor="end" font-size="11" fill="#888">930 pax</text>
  <rect x="270" y="372" width="260" height="152" fill="white" stroke="#ddd" stroke-width="1"/>
  <text x="280" y="396" font-size="18" font-weight="900" fill="#1a1a1a">11</text>
  <rect x="276" y="410" width="248" height="48" rx="6" fill="#EFF6FF" stroke="#3B82F6" stroke-width="2"/>
  <text x="284" y="429" font-size="14" font-weight="900" fill="#1a1a1a">AIDAbella</text>
  <text x="284" y="448" font-size="16" font-weight="900" fill="#1D4ED8" letter-spacing="1.5">GARBAGE</text>
  <text x="514" y="429" text-anchor="end" font-size="11" fill="#888">2050 pax</text>
  <rect x="530" y="372" width="260" height="152" fill="white" stroke="#ddd" stroke-width="1"/>
  <text x="540" y="396" font-size="18" font-weight="900" fill="#1a1a1a">12</text>
  <rect x="536" y="410" width="248" height="48" rx="6" fill="#EFF6FF" stroke="#3B82F6" stroke-width="2"/>
  <text x="544" y="429" font-size="14" font-weight="900" fill="#1a1a1a">Queen Mary 2</text>
  <text x="544" y="448" font-size="16" font-weight="900" fill="#1D4ED8" letter-spacing="1.5">GARBAGE</text>
  <text x="774" y="429" text-anchor="end" font-size="11" fill="#888">2691 pax</text>
  <rect x="536" y="462" width="248" height="48" rx="6" fill="#EFF6FF" stroke="#3B82F6" stroke-width="2"/>
  <text x="544" y="481" font-size="14" font-weight="900" fill="#1a1a1a">AIDAluna</text>
  <text x="544" y="500" font-size="16" font-weight="900" fill="#1D4ED8" letter-spacing="1.5">GARBAGE</text>
  <text x="774" y="481" text-anchor="end" font-size="11" fill="#888">2050 pax</text>
  <rect x="790" y="372" width="260" height="152" fill="white" stroke="#ddd" stroke-width="1"/>
  <text x="800" y="396" font-size="18" font-weight="400" fill="#aaa">13</text>
  <rect x="1050" y="372" width="260" height="152" fill="white" stroke="#ddd" stroke-width="1"/>
  <text x="1060" y="396" font-size="18" font-weight="900" fill="#1a1a1a">14</text>
  <rect x="1056" y="410" width="248" height="48" rx="6" fill="#EFF6FF" stroke="#3B82F6" stroke-width="2"/>
  <text x="1064" y="429" font-size="14" font-weight="900" fill="#1a1a1a">Ambition</text>
  <text x="1064" y="448" font-size="16" font-weight="900" fill="#1D4ED8" letter-spacing="1.5">GARBAGE</text>
  <text x="1294" y="429" text-anchor="end" font-size="11" fill="#888">1196 pax</text>
  <rect x="1056" y="462" width="248" height="48" rx="6" fill="#F0FDFA" stroke="#458CA7" stroke-width="2"/>
  <text x="1064" y="481" font-size="14" font-weight="900" fill="#1a1a1a">Nieuw Statendam</text>
  <text x="1064" y="500" font-size="16" font-weight="900" fill="#0F766E" letter-spacing="1.5">GARBAGE</text>
  <text x="1294" y="481" text-anchor="end" font-size="11" fill="#888">2650 pax</text>
  <rect x="1310" y="372" width="260" height="152" fill="white" stroke="#ddd" stroke-width="1"/>
  <text x="1320" y="396" font-size="18" font-weight="900" fill="#1a1a1a">15</text>
  <rect x="1316" y="410" width="248" height="48" rx="6" fill="#EFF6FF" stroke="#3B82F6" stroke-width="2"/>
  <text x="1324" y="429" font-size="14" font-weight="900" fill="#1a1a1a">Hanseatic Nature</text>
  <text x="1324" y="448" font-size="16" font-weight="900" fill="#1D4ED8" letter-spacing="1.5">TURNAROUND</text>
  <text x="1554" y="429" text-anchor="end" font-size="11" fill="#888">200 pax</text>
  <rect x="1570" y="372" width="260" height="152" fill="white" stroke="#ddd" stroke-width="1"/>
  <text x="1580" y="396" font-size="18" font-weight="900" fill="#1a1a1a">16</text>
  <rect x="1576" y="410" width="248" height="48" rx="6" fill="#FFF7ED" stroke="#F59E0B" stroke-width="2"/>
  <text x="1584" y="429" font-size="14" font-weight="900" fill="#1a1a1a">Viking Mars</text>
  <text x="1584" y="448" font-size="16" font-weight="900" fill="#D97706" letter-spacing="1.5">TURNAROUND</text>
  <text x="1814" y="429" text-anchor="end" font-size="11" fill="#888">930 pax</text>
  <rect x="10" y="524" width="260" height="100" fill="white" stroke="#ddd" stroke-width="1"/>
  <text x="20" y="548" font-size="18" font-weight="900" fill="#1a1a1a">17</text>
  <rect x="16" y="562" width="248" height="48" rx="6" fill="#FFF7ED" stroke="#F59E0B" stroke-width="2"/>
  <text x="24" y="581" font-size="14" font-weight="900" fill="#1a1a1a">Viking Vela</text>
  <text x="24" y="600" font-size="16" font-weight="900" fill="#D97706" letter-spacing="1.5">TURNAROUND</text>
  <text x="254" y="581" text-anchor="end" font-size="11" fill="#888">998 pax</text>
  <rect x="270" y="524" width="260" height="100" fill="white" stroke="#ddd" stroke-width="1"/>
  <text x="280" y="548" font-size="18" font-weight="900" fill="#1a1a1a">18</text>
  <rect x="276" y="562" width="248" height="48" rx="6" fill="#EFF6FF" stroke="#3B82F6" stroke-width="2"/>
  <text x="284" y="581" font-size="14" font-weight="900" fill="#1a1a1a">Mein Schiff 2</text>
  <text x="284" y="600" font-size="16" font-weight="900" fill="#1D4ED8" letter-spacing="1.5">GARBAGE</text>
  <text x="514" y="581" text-anchor="end" font-size="11" fill="#888">2894 pax</text>
  <rect x="530" y="524" width="260" height="100" fill="white" stroke="#ddd" stroke-width="1"/>
  <text x="540" y="548" font-size="18" font-weight="400" fill="#aaa">19</text>
  <rect x="790" y="524" width="260" height="100" fill="white" stroke="#ddd" stroke-width="1"/>
  <text x="800" y="548" font-size="18" font-weight="400" fill="#aaa">20</text>
  <rect x="1050" y="524" width="260" height="100" fill="white" stroke="#ddd" stroke-width="1"/>
  <text x="1060" y="548" font-size="18" font-weight="400" fill="#aaa">21</text>
  <rect x="1310" y="524" width="260" height="100" fill="white" stroke="#ddd" stroke-width="1"/>
  <text x="1320" y="548" font-size="18" font-weight="900" fill="#1a1a1a">22</text>
  <rect x="1316" y="562" width="248" height="48" rx="6" fill="#FFF7ED" stroke="#F59E0B" stroke-width="2"/>
  <text x="1324" y="581" font-size="14" font-weight="900" fill="#1a1a1a">Seabourn Ovation</text>
  <text x="1324" y="600" font-size="16" font-weight="900" fill="#D97706" letter-spacing="1.5">TURNAROUND</text>
  <text x="1554" y="581" text-anchor="end" font-size="11" fill="#888">604 pax</text>
  <rect x="1570" y="524" width="260" height="100" fill="white" stroke="#ddd" stroke-width="1"/>
  <text x="1580" y="548" font-size="18" font-weight="900" fill="#1a1a1a">23</text>
  <rect x="1576" y="562" width="248" height="48" rx="6" fill="#FFF7ED" stroke="#F59E0B" stroke-width="2"/>
  <text x="1584" y="581" font-size="14" font-weight="900" fill="#1a1a1a">Rotterdam</text>
  <text x="1584" y="600" font-size="16" font-weight="900" fill="#D97706" letter-spacing="1.5">TURNAROUND</text>
  <text x="1814" y="581" text-anchor="end" font-size="11" fill="#888">2106 pax</text>
  <rect x="10" y="624" width="260" height="152" fill="white" stroke="#ddd" stroke-width="1"/>
  <text x="20" y="648" font-size="18" font-weight="400" fill="#aaa">24</text>
  <rect x="270" y="624" width="260" height="152" fill="white" stroke="#ddd" stroke-width="1"/>
  <text x="280" y="648" font-size="18" font-weight="400" fill="#aaa">25</text>
  <rect x="530" y="624" width="260" height="152" fill="white" stroke="#ddd" stroke-width="1"/>
  <text x="540" y="648" font-size="18" font-weight="900" fill="#1a1a1a">26</text>
  <rect x="536" y="662" width="248" height="48" rx="6" fill="#EFF6FF" stroke="#3B82F6" stroke-width="2"/>
  <text x="544" y="681" font-size="14" font-weight="900" fill="#1a1a1a">Amera</text>
  <text x="544" y="700" font-size="16" font-weight="900" fill="#1D4ED8" letter-spacing="1.5">GARBAGE</text>
  <text x="774" y="681" text-anchor="end" font-size="11" fill="#888">835 pax</text>
  <rect x="790" y="624" width="260" height="152" fill="white" stroke="#ddd" stroke-width="1"/>
  <text x="800" y="648" font-size="18" font-weight="400" fill="#aaa">27</text>
  <rect x="1050" y="624" width="260" height="152" fill="white" stroke="#ddd" stroke-width="1"/>
  <text x="1060" y="648" font-size="18" font-weight="400" fill="#aaa">28</text>
  <rect x="1310" y="624" width="260" height="152" fill="white" stroke="#ddd" stroke-width="1"/>
  <text x="1320" y="648" font-size="18" font-weight="900" fill="#1a1a1a">29</text>
  <rect x="1316" y="662" width="248" height="48" rx="6" fill="#EFF6FF" stroke="#3B82F6" stroke-width="2"/>
  <text x="1324" y="681" font-size="14" font-weight="900" fill="#1a1a1a">AIDAdiva</text>
  <text x="1324" y="700" font-size="16" font-weight="900" fill="#1D4ED8" letter-spacing="1.5">GARBAGE</text>
  <text x="1554" y="681" text-anchor="end" font-size="11" fill="#888">1025 pax</text>
  <rect x="1316" y="714" width="248" height="48" rx="6" fill="#EFF6FF" stroke="#3B82F6" stroke-width="2"/>
  <text x="1324" y="733" font-size="14" font-weight="900" fill="#1a1a1a">Mein Schiff 1</text>
  <text x="1324" y="752" font-size="16" font-weight="900" fill="#1D4ED8" letter-spacing="1.5">GARBAGE</text>
  <text x="1554" y="733" text-anchor="end" font-size="11" fill="#888">2894 pax</text>
  <rect x="1570" y="624" width="260" height="152" fill="white" stroke="#ddd" stroke-width="1"/>
  <text x="1580" y="648" font-size="18" font-weight="900" fill="#1a1a1a">30</text>
  <rect x="1576" y="662" width="248" height="48" rx="6" fill="#FFF7ED" stroke="#F59E0B" stroke-width="2"/>
  <text x="1584" y="681" font-size="14" font-weight="900" fill="#1a1a1a">Viking Mira</text>
  <text x="1584" y="700" font-size="16" font-weight="900" fill="#D97706" letter-spacing="1.5">TURNAROUND</text>
  <text x="1814" y="681" text-anchor="end" font-size="11" fill="#888">990 pax</text>
  <rect x="10" y="776" width="260" height="100" fill="white" stroke="#ddd" stroke-width="1"/>
  <text x="20" y="800" font-size="18" font-weight="900" fill="#1a1a1a">31</text>
  <rect x="16" y="814" width="248" height="48" rx="6" fill="#EFF6FF" stroke="#3B82F6" stroke-width="2"/>
  <text x="24" y="833" font-size="14" font-weight="900" fill="#1a1a1a">Artania</text>
  <text x="24" y="852" font-size="16" font-weight="900" fill="#1D4ED8" letter-spacing="1.5">GARBAGE</text>
  <text x="254" y="833" text-anchor="end" font-size="11" fill="#888">1176 pax</text>
  <rect x="270" y="776" width="260" height="100" fill="#fafafa" stroke="#ddd" stroke-width="1"/>
  <rect x="530" y="776" width="260" height="100" fill="#fafafa" stroke="#ddd" stroke-width="1"/>
  <rect x="790" y="776" width="260" height="100" fill="#fafafa" stroke="#ddd" stroke-width="1"/>
  <rect x="1050" y="776" width="260" height="100" fill="#fafafa" stroke="#ddd" stroke-width="1"/>
  <rect x="1310" y="776" width="260" height="100" fill="#fafafa" stroke="#ddd" stroke-width="1"/>
  <rect x="1570" y="776" width="260" height="100" fill="#fafafa" stroke="#ddd" stroke-width="1"/>
</svg>