<svg xmlns="http://www.w3.org/2000/svg" width="1840" height="640" viewBox="0 0 1840 640">
  <defs>
    <style>
      @import url('https://fonts.googleapis.com/css2?family=Inter:wght@400;700;900&amp;display=swap');
      text { font-family: 'Inter', 'Helvetica Neue', Arial, sans-serif; }
    </style>
  </defs>
  <rect width="1840" height="640" fill="white"/>
  <text x="920" y="42" text-anchor="middle" font-size="38" font-weight="900" fill="#1a1a1a">May 2026</text>
  <text x="920" y="62" text-anchor="middle" font-size="13" font-weight="700" fill="#666">IPS + SDK + Princess</text>
  <rect x="770" y="64" width="12" height="12" rx="3" fill="#FFF7ED" stroke="#F59E0B" stroke-width="2"/>
  <text x="787" y="74" font-size="11" font-weight="600" fill="#888">IPS</text>
  <rect x="870" y="64" width="12" height="12" rx="3" fill="#EFF6FF" stroke="#3B82F6" stroke-width="2"/>
  <text x="887" y="74" font-size="11" font-weight="600" fill="#888">SDK</text>
  <rect x="970" y="64" width="12" height="12" rx="3" fill="#FDF2F8" stroke="#EC4899" stroke-width="2"/>
  <text x="987" y="74" font-size="11" font-weight="600" fill="#888">Princess</text>
  <rect x="10" y="80" width="260" height="40" fill="#f0f0f0" stroke="#ddd" stroke-width="1"/>  <text x="140" y="107" text-anchor="middle" font-size="15" font-weight="700" fill="#555">Mon</text>
  <rect x="270" y="80" width="260" height="40" fill="#f0f0f0" stroke="#ddd" stroke-width="1"/>  <text x="400" y="107" text-anchor="middle" font-size="15" font-weight="700" fill="#555">Tue</text>
  <rect x="530" y="80" width="260" height="40" fill="#f0f0f0" stroke="#ddd" stroke-width="1"/>  <text x="660" y="107" text-anchor="middle" font-size="15" font-weight="700" fill="#555">Wed</text>
  <rect x="790" y="80" width="260" height="40" fill="#f0f0f0" stroke="#ddd" stroke-width="1"/>  <text x="920" y="107" text-anchor="middle" font-size="15" font-weight="700" fill="#555">Thu</text>
  <rect x="1050" y="80" width="260" height="40" fill="#f0f0f0" stroke="#ddd" stroke-width="1"/>  <text x="1180" y="107" text-anchor="middle" font-size="15" font-weight="700" fill="#555">Fri</text>
  <rect x="1310" y="80" width="260" height="40" fill="#f0f0f0" stroke="#ddd" stroke-width="1"/>  <text x="1440" y="107" text-anchor="middle" font-size="15" font-weight="700" fill="#555">Sat</text>
  <rect x="1570" y="80" width="260" height="40" fill="#f0f0f0" stroke="#ddd" stroke-width="1"/>  <text x="1700" y="107" text-anchor="middle" font-size="15" font-weight="700" fill="#555">Sun</text>
  <rect x="10" y="120" width="260" height="100" fill="#fafafa" stroke="#ddd" stroke-width="1"/>
  <rect x="270" y="120" width="260" height="100" fill="#fafafa" stroke="#ddd" stroke-width="1"/>
  <rect x="530" y="120" width="260" height="100" fill="#fafafa" stroke="#ddd" stroke-width="1"/>
  <rect x="790" y="120" width="260" height="100" fill="#fafafa" stroke="#ddd" stroke-width="1"/>
  <rect x="1050" y="120" width="260" height="100" fill="white" stroke="#ddd" stroke-width="1"/>
  <text x="1060" y="144" font-size="18" font-weight="400" fill="#aaa">1</text>
  <rect x="1310" y="120" width="260" height="100" fill="white" stroke="#ddd" stroke-width="1"/>
  <text x="1320" y="144" font-size="18" font-weight="400" fill="#aaa">2</text>
  <rect x="1570" y="120" width="260" height="100" fill="white" stroke="#ddd" stroke-width="1"/>
  <text x="1580" y="144" font-size="18" font-weight="400" fill="#aaa">3</text>
  <rect x="10" y="220" width="260" height="100" fill="white" stroke="#ddd" stroke-width="1"/>
  <text x="20" y="244" font-size="18" font-weight="400" fill="#aaa">4</text>
  <rect x="270" y="220" width="260" height="100" fill="white" stroke="#ddd" stroke-width="1"/>
  <text x="280" y="244" font-size="18" font-weight="400" fill="#aaa">5</text>
  <rect x="530" y="220" width="260" height="100" fill="white" stroke="#ddd" stroke-width="1"/>
  <text x="540" y="244" font-size="18" font-weight="400" fill="#aaa">6</text>
  <rect x="790" y="220" width="260" height="100" fill="white" stroke="#ddd" stroke-width="1"/>
  <text x="800" y="244" font-size="18" font-weight="400" fill="#aaa">7</text>
  <rect x="1050" y="220" width="260" height="100" fill="white" stroke="#ddd" stroke-width="1"/>
  <text x="1060" y="244" font-size="18" font-weight="400" fill="#aaa">8</text>
  <rect x="1310" y="220" width="260" height="100" fill="white" stroke="#ddd" stroke-width="1"/>
  <text x="1320" y="244" font-size="18" font-weight="400" fill="#aaa">9</text>
  <rect x="1570" y="220" width="260" height="100" fill="white" stroke="#ddd" stroke-width="1"/>
  <text x="1580" y="244" font-size="18" font-weight="400" fill="#aaa">10</text>
  <rect x="10" y="320" width="260" height="100" fill="white" stroke="#ddd" stroke-width="1"/>
  <text x="20" y="344" font-size="18" font-weight="400" fill="#aaa">11</text>
  <rect x="270" y="320" width="260" height="100" fill="white" stroke="#ddd" stroke-width="1"/>
  <text x="280" y="344" font-size="18" font-weight="400" fill="#aaa">12</text>
  <rect x="530" y="320" width="260" height="100" fill="white" stroke="#ddd" stroke-width="1"/>
  <text x="540" y="344" font-size="18" font-weight="400" fill="#aaa">13</text>
  <rect x="790" y="320" width="260" height="100" fill="white" stroke="#ddd" stroke-width="1"/>
  <text x="800" y="344" font-size="18" font-weight="400" fill="#aaa">14</text>
  <rect x="1050" y="320" width="260" height="100" fill="white" stroke="#ddd" stroke-width="1"/>
  <text x="1060" y="344" font-size="18" font-weight="400" fill="#aaa">15</text>
  <rect x="1310" y="320" width="260" height="100" fill="white" stroke="#ddd" stroke-width="1"/>
  <text x="1320" y="344" font-size="18" font-weight="400" fill="#aaa">16</text>
  <rect x="1570" y="320" width="260" height="100" fill="white" stroke="#ddd" stroke-width="1"/>
  <text x="1580" y="344" font-size="18" font-weight="400" fill="#aaa">17</text>
  <rect x="10" y="420" width="260" height="100" fill="white" stroke="#ddd" stroke-width="1"/>
  <text x="20" y="444" font-size="18" font-weight="400" fill="#aaa">18</text>
  <rect x="270" y="420" width="260" height="100" fill="white" stroke="#ddd" stroke-width="1"/>
  <text x="280" y="444" font-size="18" font-weight="400" fill="#aaa">19</text>
  <rect x="530" y="420" width="260" height="100" fill="white" stroke="#ddd" stroke-width="1"/>
  <text x="540" y="444" font-size="18" font-weight="400" fill="#aaa">20</text>
  <rect x="790" y="420" width="260" height="100" fill="white" stroke="#ddd" stroke-width="1"/>
  <text x="800" y="444" font-size="18" font-weight="400" fill="#aaa">21</text>
  <rect x="1050" y="420" width="260" height="100" fill="white" stroke="#ddd" stroke-width="1"/>
  <text x="1060" y="444" font-size="18" font-weight="400" fill="#aaa">22</text>
  <rect x="1310" y="420" width="260" height="100" fill="white" stroke="#ddd" stroke-width="1"/>
  <text x="1320" y="444" font-size="18" font-weight="900" fill="#1a1a1a">23</text>
  <rect x="1316" y="458" width="248" height="48" rx="6" fill="#EFF6FF" stroke="#3B82F6" stroke-width="2"/>
  <text x="1324" y="477" font-size="14" font-weight="900" fill="#1a1a1a">Europa 2</text>
  <text x="1324" y="496" font-size="16" font-weight="900" fill="#1D4ED8" letter-spacing="1.5">GARBAGE</text>
  <text x="1554" y="477" text-anchor="end" font-size="11" fill="#888">706 pax</text>
  <rect x="1570" y="420" width="260" height="100" fill="white" stroke="#ddd" stroke-width="1"/>
  <text x="1580" y="444" font-size="18" font-weight="400" fill="#aaa">24</text>
  <rect x="10" y="520" width="260" height="100" fill="white" stroke="#ddd" stroke-width="1"/>
  <text x="20" y="544" font-size="18" font-weight="400" fill="#aaa">25</text>
  <rect x="270" y="520" width="260" height="100" fill="white" stroke="#ddd" stroke-width="1"/>
  <text x="280" y="544" font-size="18" font-weight="400" fill="#aaa">26</text>
  <rect x="530" y="520" width="260" height="100" fill="white" stroke="#ddd" stroke-width="1"/>
  <text x="540" y="544" font-size="18" font-weight="400" fill="#aaa">27</text>
  <rect x="790" y="520" width="260" height="100" fill="white" stroke="#ddd" stroke-width="1"/>
  <text x="800" y="544" font-size="18" font-weight="900" fill="#1a1a1a">28</text>
  <rect x="796" y="558" width="248" height="48" rx="6" fill="#EFF6FF" stroke="#3B82F6" stroke-width="2"/>
  <text x="804" y="577" font-size="14" font-weight="900" fill="#1a1a1a">Mein Schiff 2</text>
  <text x="804" y="596" font-size="16" font-weight="900" fill="#1D4ED8" letter-spacing="1.5">GARBAGE</text>
  <text x="1034" y="577" text-anchor="end" font-size="11" fill="#888">2894 pax</text>
  <rect x="1050" y="520" width="260" height="100" fill="white" stroke="#ddd" stroke-width="1"/>
  <text x="1060" y="544" font-size="18" font-weight="400" fill="#aaa">29</text>
  <rect x="1310" y="520" width="260" height="100" fill="white" stroke="#ddd" stroke-width="1"/>
  <text x="1320" y="544" font-size="18" font-weight="400" fill="#aaa">30</text>
  <rect x="1570" y="520" width="260" height="100" fill="white" stroke="#ddd" stroke-width="1"/>
  <text x="1580" y="544" font-size="18" font-weight="400" fill="#aaa">31</text>
</svg>