<svg xmlns="http://www.w3.org/2000/svg" width="1840" height="692" viewBox="0 0 1840 692">
  <defs>
    <style>
      @import url('https://fonts.googleapis.com/css2?family=Inter:wght@400;700;900&amp;display=swap');
      text { font-family: 'Inter', 'Helvetica Neue', Arial, sans-serif; }
    </style>
  </defs>
  <rect width="1840" height="692" fill="white"/>
  <text x="920" y="42" text-anchor="middle" font-size="38" font-weight="900" fill="#1a1a1a">September 2026</text>
  <text x="920" y="62" text-anchor="middle" font-size="13" font-weight="700" fill="#666">IPS + SDK + Princess</text>
  <rect x="770" y="64" width="12" height="12" rx="3" fill="#FFF7ED" stroke="#F59E0B" stroke-width="2"/>
  <text x="787" y="74" font-size="11" font-weight="600" fill="#888">IPS</text>
  <rect x="870" y="64" width="12" height="12" rx="3" fill="#EFF6FF" stroke="#3B82F6" stroke-width="2"/>
  <text x="887" y="74" font-size="11" font-weight="600" fill="#888">SDK</text>
  <rect x="970" y="64" width="12" height="12" rx="3" fill="#FDF2F8" stroke="#EC4899" stroke-width="2"/>
  <text x="987" y="74" font-size="11" font-weight="600" fill="#888">Princess</text>
  <rect x="10" y="80" width="260" height="40" fill="#f0f0f0" stroke="#ddd" stroke-width="1"/>  <text x="140" y="107" text-anchor="middle" font-size="15" font-weight="700" fill="#555">Mon</text>
  <rect x="270" y="80" width="260" height="40" fill="#f0f0f0" stroke="#ddd" stroke-width="1"/>  <text x="400" y="107" text-anchor="middle" font-size="15" font-weight="700" fill="#555">Tue</text>
  <rect x="530" y="80" width="260" height="40" fill="#f0f0f0" stroke="#ddd" stroke-width="1"/>  <text x="660" y="107" text-anchor="middle" font-size="15" font-weight="700" fill="#555">Wed</text>
  <rect x="790" y="80" width="260" height="40" fill="#f0f0f0" stroke="#ddd" stroke-width="1"/>  <text x="920" y="107" text-anchor="middle" font-size="15" font-weight="700" fill="#555">Thu</text>
  <rect x="1050" y="80" width="260" height="40" fill="#f0f0f0" stroke="#ddd" stroke-width="1"/>  <text x="1180" y="107" text-anchor="middle" font-size="15" font-weight="700" fill="#555">Fri</text>
  <rect x="1310" y="80" width="260" height="40" fill="#f0f0f0" stroke="#ddd" stroke-width="1"/>  <text x="1440" y="107" text-anchor="middle" font-size="15" font-weight="700" fill="#555">Sat</text>
  <rect x="1570" y="80" width="260" height="40" fill="#f0f0f0" stroke="#ddd" stroke-width="1"/>  <text x="1700" y="107" text-anchor="middle" font-size="15" font-weight="700" fill="#555">Sun</text>
  <rect x="10" y="120" width="260" height="152" fill="#fafafa" stroke="#ddd" stroke-width="1"/>
  <rect x="270" y="120" width="260" height="152" fill="white" stroke="#ddd" stroke-width="1"/>
  <text x="280" y="144" font-size="18" font-weight="900" fill="#1a1a1a">1</text>
  <rect x="276" y="158" width="248" height="48" rx="6" fill="#FFF7ED" stroke="#F59E0B" stroke-width="2"/>
  <text x="284" y="177" font-size="14" font-weight="900" fill="#1a1a1a">Viking Mira</text>
  <text x="284" y="196" font-size="16" font-weight="900" fill="#D97706" letter-spacing="1.5">TURNAROUND</text>
  <text x="514" y="177" text-anchor="end" font-size="11" fill="#888">990 pax</text>
  <rect x="276" y="210" width="248" height="48" rx="6" fill="#EFF6FF" stroke="#3B82F6" stroke-width="2"/>
  <text x="284" y="229" font-size="14" font-weight="900" fill="#1a1a1a">Artania</text>
  <text x="284" y="248" font-size="16" font-weight="900" fill="#1D4ED8" letter-spacing="1.5">GARBAGE</text>
  <text x="514" y="229" text-anchor="end" font-size="11" fill="#888">1176 pax</text>
  <rect x="530" y="120" width="260" height="152" fill="white" stroke="#ddd" stroke-width="1"/>
  <text x="540" y="144" font-size="18" font-weight="400" fill="#aaa">2</text>
  <rect x="790" y="120" width="260" height="152" fill="white" stroke="#ddd" stroke-width="1"/>
  <text x="800" y="144" font-size="18" font-weight="900" fill="#1a1a1a">3</text>
  <rect x="796" y="158" width="248" height="48" rx="6" fill="#FDF2F8" stroke="#EC4899" stroke-width="2"/>
  <text x="804" y="177" font-size="14" font-weight="900" fill="#1a1a1a">Sky Princess</text>
  <text x="804" y="196" font-size="16" font-weight="900" fill="#BE185D" letter-spacing="1.5">GARBAGE</text>
  <text x="1034" y="177" text-anchor="end" font-size="11" fill="#888">3560 pax</text>
  <rect x="1050" y="120" width="260" height="152" fill="white" stroke="#ddd" stroke-width="1"/>
  <text x="1060" y="144" font-size="18" font-weight="400" fill="#aaa">4</text>
  <rect x="1310" y="120" width="260" height="152" fill="white" stroke="#ddd" stroke-width="1"/>
  <text x="1320" y="144" font-size="18" font-weight="400" fill="#aaa">5</text>
  <rect x="1570" y="120" width="260" height="152" fill="white" stroke="#ddd" stroke-width="1"/>
  <text x="1580" y="144" font-size="18" font-weight="400" fill="#aaa">6</text>
  <rect x="10" y="272" width="260" height="100" fill="white" stroke="#ddd" stroke-width="1"/>
  <text x="20" y="296" font-size="18" font-weight="900" fill="#1a1a1a">7</text>
  <rect x="16" y="310" width="248" height="48" rx="6" fill="#EFF6FF" stroke="#3B82F6" stroke-width="2"/>
  <text x="24" y="329" font-size="14" font-weight="900" fill="#1a1a1a">AIDAluna</text>
  <text x="24" y="348" font-size="16" font-weight="900" fill="#1D4ED8" letter-spacing="1.5">GARBAGE</text>
  <text x="254" y="329" text-anchor="end" font-size="11" fill="#888">2050 pax</text>
  <rect x="270" y="272" width="260" height="100" fill="white" stroke="#ddd" stroke-width="1"/>
  <text x="280" y="296" font-size="18" font-weight="400" fill="#aaa">8</text>
  <rect x="530" y="272" width="260" height="100" fill="white" stroke="#ddd" stroke-width="1"/>
  <text x="540" y="296" font-size="18" font-weight="400" fill="#aaa">9</text>
  <rect x="790" y="272" width="260" height="100" fill="white" stroke="#ddd" stroke-width="1"/>
  <text x="800" y="296" font-size="18" font-weight="400" fill="#aaa">10</text>
  <rect x="1050" y="272" width="260" height="100" fill="white" stroke="#ddd" stroke-width="1"/>
  <text x="1060" y="296" font-size="18" font-weight="400" fill="#aaa">11</text>
  <rect x="1310" y="272" width="260" height="100" fill="white" stroke="#ddd" stroke-width="1"/>
  <text x="1320" y="296" font-size="18" font-weight="400" fill="#aaa">12</text>
  <rect x="1570" y="272" width="260" height="100" fill="white" stroke="#ddd" stroke-width="1"/>
  <text x="1580" y="296" font-size="18" font-weight="400" fill="#aaa">13</text>
  <rect x="10" y="372" width="260" height="100" fill="white" stroke="#ddd" stroke-width="1"/>
  <text x="20" y="396" font-size="18" font-weight="400" fill="#aaa">14</text>
  <rect x="270" y="372" width="260" height="100" fill="white" stroke="#ddd" stroke-width="1"/>
  <text x="280" y="396" font-size="18" font-weight="900" fill="#1a1a1a">15</text>
  <rect x="276" y="410" width="248" height="48" rx="6" fill="#EFF6FF" stroke="#3B82F6" stroke-width="2"/>
  <text x="284" y="429" font-size="14" font-weight="900" fill="#1a1a1a">Ambience</text>
  <text x="284" y="448" font-size="16" font-weight="900" fill="#1D4ED8" letter-spacing="1.5">GARBAGE</text>
  <text x="514" y="429" text-anchor="end" font-size="11" fill="#888">1596 pax</text>
  <rect x="530" y="372" width="260" height="100" fill="white" stroke="#ddd" stroke-width="1"/>
  <text x="540" y="396" font-size="18" font-weight="400" fill="#aaa">16</text>
  <rect x="790" y="372" width="260" height="100" fill="white" stroke="#ddd" stroke-width="1"/>
  <text x="800" y="396" font-size="18" font-weight="400" fill="#aaa">17</text>
  <rect x="1050" y="372" width="260" height="100" fill="white" stroke="#ddd" stroke-width="1"/>
  <text x="1060" y="396" font-size="18" font-weight="400" fill="#aaa">18</text>
  <rect x="1310" y="372" width="260" height="100" fill="white" stroke="#ddd" stroke-width="1"/>
  <text x="1320" y="396" font-size="18" font-weight="400" fill="#aaa">19</text>
  <rect x="1570" y="372" width="260" height="100" fill="white" stroke="#ddd" stroke-width="1"/>
  <text x="1580" y="396" font-size="18" font-weight="400" fill="#aaa">20</text>
  <rect x="10" y="472" width="260" height="100" fill="white" stroke="#ddd" stroke-width="1"/>
  <text x="20" y="496" font-size="18" font-weight="400" fill="#aaa">21</text>
  <rect x="270" y="472" width="260" height="100" fill="white" stroke="#ddd" stroke-width="1"/>
  <text x="280" y="496" font-size="18" font-weight="400" fill="#aaa">22</text>
  <rect x="530" y="472" width="260" height="100" fill="white" stroke="#ddd" stroke-width="1"/>
  <text x="540" y="496" font-size="18" font-weight="400" fill="#aaa">23</text>
  <rect x="790" y="472" width="260" height="100" fill="white" stroke="#ddd" stroke-width="1"/>
  <text x="800" y="496" font-size="18" font-weight="900" fill="#1a1a1a">24</text>
  <rect x="796" y="510" width="248" height="48" rx="6" fill="#EFF6FF" stroke="#3B82F6" stroke-width="2"/>
  <text x="804" y="529" font-size="14" font-weight="900" fill="#1a1a1a">Hanseatic Spirit</text>
  <text x="804" y="548" font-size="16" font-weight="900" fill="#1D4ED8" letter-spacing="1.5">TURNAROUND</text>
  <text x="1034" y="529" text-anchor="end" font-size="11" fill="#888">230 pax</text>
  <rect x="1050" y="472" width="260" height="100" fill="white" stroke="#ddd" stroke-width="1"/>
  <text x="1060" y="496" font-size="18" font-weight="400" fill="#aaa">25</text>
  <rect x="1310" y="472" width="260" height="100" fill="white" stroke="#ddd" stroke-width="1"/>
  <text x="1320" y="496" font-size="18" font-weight="900" fill="#1a1a1a">26</text>
  <rect x="1316" y="510" width="248" height="48" rx="6" fill="#FDF2F8" stroke="#EC4899" stroke-width="2"/>
  <text x="1324" y="529" font-size="14" font-weight="900" fill="#1a1a1a">Majestic Princess</text>
  <text x="1324" y="548" font-size="16" font-weight="900" fill="#BE185D" letter-spacing="1.5">GARBAGE</text>
  <text x="1554" y="529" text-anchor="end" font-size="11" fill="#888">3560 pax</text>
  <rect x="1570" y="472" width="260" height="100" fill="white" stroke="#ddd" stroke-width="1"/>
  <text x="1580" y="496" font-size="18" font-weight="400" fill="#aaa">27</text>
  <rect x="10" y="572" width="260" height="100" fill="white" stroke="#ddd" stroke-width="1"/>
  <text x="20" y="596" font-size="18" font-weight="400" fill="#aaa">28</text>
  <rect x="270" y="572" width="260" height="100" fill="white" stroke="#ddd" stroke-width="1"/>
  <text x="280" y="596" font-size="18" font-weight="400" fill="#aaa">29</text>
  <rect x="530" y="572" width="260" height="100" fill="white" stroke="#ddd" stroke-width="1"/>
  <text x="540" y="596" font-size="18" font-weight="400" fill="#aaa">30</text>
  <rect x="790" y="572" width="260" height="100" fill="#fafafa" stroke="#ddd" stroke-width="1"/>
  <rect x="1050" y="572" width="260" height="100" fill="#fafafa" stroke="#ddd" stroke-width="1"/>
  <rect x="1310" y="572" width="260" height="100" fill="#fafafa" stroke="#ddd" stroke-width="1"/>
  <rect x="1570" y="572" width="260" height="100" fill="#fafafa" stroke="#ddd" stroke-width="1"/>
</svg>